:SAMPLES-PER-SECOND 30
:FULLY-SPECIFIED
:DEGREES
1230
root  -21.8049 38.5161 16.7481 -150.23 -84.2071 150.611
RightUpLeg  -21.2535 -25.1786 -14.7805
RightLeg  37.7915 -4.41432 -3.95055
RightFoot  -14.1265 0.180047 11.3162
RightToes  -1.81608e-008 0 -3.6325e-017
Spine  22.591 -0.381459 -11.8693
Spine1  -18.065 -2.35982 5.3173
HEad  -10.783 3.04689 -3.85895
LeftShoulder1  -0.59921 5.2421 -28.2745
LeftArm  -7.86166 16.7865 -31.0665
LeftForeArm  15.6395 -12.4338 -5.36965
LeftHand  0.00423853 6.50209 3.73728
RightShoulder  -0.791111 -6.01523 24.8601
RightArm  7.75656 -24.1191 36.7645
RightForeArm  6.24008 17.0021 3.68574
RightHand  -0.373188 3.12934 -5.30828
LeftUpLeg  -4.03978 15.5269 16.833
LeftLeg  5.51342 14.2267 -0.625905
LeftFoot  4.31004 2.4233 -17.7083
LeftToes  1.81866e-011 -6.13092e-011 2.52013e-011
1231
root  -21.1335 38.479 16.8044 -149.347 -83.6647 149.869
RightUpLeg  -18.9759 -23.3717 -15.7862
RightLeg  41.8424 -5.71803 -5.73701
RightFoot  -13.8544 0.136018 10.48
RightToes  -1.81608e-008 0 -3.6325e-017
Spine  21.4043 -0.146056 -10.7911
Spine1  -17.3673 -1.91394 4.0518
HEad  -11.2242 2.44096 -3.72524
LeftShoulder1  -0.688683 5.47885 -28.6884
LeftArm  -8.42891 20.6997 -31.3613
LeftForeArm  16.1611 -11.198 -5.2164
LeftHand  0.0135905 7.78714 2.4522
RightShoulder  -0.818386 -6.09619 24.927
RightArm  7.57518 -22.0715 36.0094
RightForeArm  5.93213 15.402 3.61431
RightHand  -0.329144 2.79284 -4.88851
LeftUpLeg  -5.38657 15.228 16.1026
LeftLeg  5.76299 15.2348 -0.395576
LeftFoot  5.5117 2.45329 -16.6864
LeftToes  1.81866e-011 -6.13092e-011 2.52013e-011
1232
root  -20.4239 38.3635 16.765 -144.812 -83.1205 145.165
RightUpLeg  -15.9835 -22.2727 -16.9639
RightLeg  44.7315 -5.97462 -6.58986
RightFoot  -13.6479 0.109558 9.99471
RightToes  -1.81608e-008 0 -3.6325e-017
Spine  20.656 0.137687 -9.30512
Spine1  -16.6949 -1.38456 1.99413
HEad  -11.3169 1.10306 -3.80515
LeftShoulder1  -0.702064 5.49312 -29.116
LeftArm  -9.85638 23.8684 -31.6863
LeftForeArm  17.2485 -9.69615 -4.6438
LeftHand  -0.0170406 7.31107 1.2661
RightShoulder  -0.899579 -6.31706 25.3811
RightArm  7.81234 -20.106 35.0515
RightForeArm  5.01476 14.2572 3.69352
RightHand  -0.398444 3.97143 -5.20991
LeftUpLeg  -6.53669 14.8118 15.1919
LeftLeg  5.99377 16.0331 -0.204579
LeftFoot  6.73387 2.51082 -15.9584
LeftToes  1.81866e-011 -6.13092e-011 2.52013e-011
1233
root  -19.6582 38.1669 16.6018 -136.38 -82.7 136.527
RightUpLeg  -12.5377 -21.4021 -18.1207
RightLeg  46.0277 -4.91446 -5.7413
RightFoot  -12.9155 0.035139 10.4092
RightToes  -1.81608e-008 0 -3.6325e-017
Spine  20.6872 0.297468 -8.72687
Spine1  -16.8344 -1.17697 1.11747
HEad  -11.5173 0.374276 -4.42839
LeftShoulder1  -0.785487 5.73403 -29.0294
LeftArm  -9.09286 27.4328 -31.7561
LeftForeArm  15.6126 -9.30674 -4.848
LeftHand  -0.00250619 7.91175 1.76227
RightShoulder  -0.850754 -6.17381 25.2392
RightArm  7.67211 -18.9375 34.7784
RightForeArm  5.41368 14.4174 3.66453
RightHand  -0.36099 3.13616 -5.15086
LeftUpLeg  -7.96443 14.6316 14.2477
LeftLeg  6.36253 16.2302 -0.391744
LeftFoot  8.02149 2.56188 -15.23
LeftToes  1.81866e-011 -6.13092e-011 2.52013e-011
1234
root  -18.8222 37.8616 16.2919 -124.309 -82.1163 124.363
RightUpLeg  -8.6333 -19.9222 -19.1102
RightLeg  45.007 -3.27675 -3.82995
RightFoot  -14.3438 0.392628 15.0233
RightToes  -1.81608e-008 0 -3.6325e-017
Spine  20.3752 0.560606 -8.61767
Spine1  -16.1311 -0.927965 0.516949
HEad  -11.875 -0.94555 -5.26684
LeftShoulder1  -0.810651 5.78574 -29.3428
LeftArm  -9.46059 28.922 -31.9734
LeftForeArm  14.304 -7.9793 -4.53587
LeftHand  0.00122827 8.20489 1.77644
RightShoulder  -0.81663 -6.1176 24.6005
RightArm  7.9378 -18.0071 35.0448
RightForeArm  4.74881 15.4682 3.76844
RightHand  -0.366228 4.20406 -4.71046
LeftUpLeg  -9.86449 14.0341 12.8768
LeftLeg  6.70625 16.4149 -0.340977
LeftFoot  9.65646 2.69933 -14.8129
LeftToes  1.81866e-011 -6.13092e-011 2.52013e-011
1235
root  -17.9037 37.4886 15.9177 -111.864 -81.1222 111.943
RightUpLeg  -5.26411 -17.1963 -19.7461
RightLeg  41.1564 -1.96097 -2.11578
RightFoot  -23.4012 1.84906 19.5659
RightToes  -1.81608e-008 0 -3.6325e-017
Spine  20.7112 0.548319 -7.72487
Spine1  -15.9088 -0.773642 -1.14663
HEad  -13.0586 -2.13941 -5.99473
LeftShoulder1  -0.798054 5.74976 -29.3495
LeftArm  -9.67374 29.3039 -32.1644
LeftForeArm  13.4181 -6.72608 -4.25136
LeftHand  -0.0091937 8.21421 1.44936
RightShoulder  -0.865594 -6.22895 25.1506
RightArm  8.14665 -16.5669 34.8699
RightForeArm  5.20827 16.5599 3.81453
RightHand  -0.289075 4.57172 -3.63599
LeftUpLeg  -12.0866 13.6752 11.5066
LeftLeg  7.08376 16.2507 -0.797288
LeftFoot  11.2958 2.79836 -14.2777
LeftToes  1.81866e-011 -6.13092e-011 2.52013e-011
1236
root  -16.9036 37.2384 15.6202 -102.659 -80.8403 102.9
RightUpLeg  -5.15814 -15.9693 -19.1568
RightLeg  38.7191 -1.70138 -1.73742
RightFoot  -28.1016 1.89131 13.9856
RightToes  -1.81608e-008 0 -3.6325e-017
Spine  22.0604 0.0161125 -4.7038
Spine1  -16.3895 -0.746421 -2.57124
HEad  -14.7378 -3.4021 -6.55404
LeftShoulder1  -0.878179 5.95335 -29.6661
LeftArm  -10.1177 28.6278 -32.3381
LeftForeArm  13.0508 -6.37047 -3.95717
LeftHand  -0.0660622 8.17182 -0.869868
RightShoulder  -0.852204 -6.19156 25.0871
RightArm  7.80925 -14.6615 35.3396
RightForeArm  6.67433 17.3101 3.77519
RightHand  -0.234255 3.84715 -3.21767
LeftUpLeg  -14.2669 13.728 10.8215
LeftLeg  6.57414 15.8467 -1.51631
LeftFoot  13.5491 2.78875 -12.9719
LeftToes  1.81866e-011 -6.13092e-011 2.52013e-011
